<svg xmlns="http://www.w3.org/2000/svg" viewBox="0 0 1080 340" width="1080" height="340">
<rect width="1080" height="340" fill="#F8FAFC" rx="18"/>


  <g transform="translate(20,0)">
    <rect x="0" y="0" width="520" height="340" rx="14" fill="#fff" stroke="#E2E8F0" stroke-width="2"/>
    <rect x="16" y="14" width="62" height="24" rx="12" fill="#DC2626"/>
    <text x="47" y="31" text-anchor="middle" font-family='DM Sans, Inter, Arial, sans-serif' font-size="12" font-weight="700" fill="#fff">✗ MAL</text>
    <text x="504" y="31" text-anchor="end" font-family='DM Sans, Inter, Arial, sans-serif' font-size="12" fill="#64748B">Cinco botones, cero decisión</text>
  </g>
<g transform="translate(20,0)">
  <text x="40" y="100" font-family='Space Grotesk, Arial, sans-serif' font-size="24" font-weight="700" fill="#1E293B">Organiza tu inventario</text>
  <text x="40" y="128" font-family='DM Sans, Inter, Arial, sans-serif' font-size="14" fill="#64748B">Para tiendas pequeñas que venden en línea y en local.</text>
  <rect x="40" y="160" width="120" height="40" rx="8" fill="#7C3AED"/><text x="100" y="185" text-anchor="middle" font-family='DM Sans, Inter, Arial, sans-serif' font-size="14" font-weight="600" fill="#fff">Enviar</text><rect x="170" y="160" width="120" height="40" rx="8" fill="#7C3AED"/><text x="230" y="185" text-anchor="middle" font-family='DM Sans, Inter, Arial, sans-serif' font-size="14" font-weight="600" fill="#fff">Demo</text><rect x="300" y="160" width="120" height="40" rx="8" fill="#7C3AED"/><text x="360" y="185" text-anchor="middle" font-family='DM Sans, Inter, Arial, sans-serif' font-size="14" font-weight="600" fill="#fff">Precios</text>
  <rect x="40" y="210" width="120" height="40" rx="8" fill="#7C3AED"/><text x="100" y="235" text-anchor="middle" font-family='DM Sans, Inter, Arial, sans-serif' font-size="14" font-weight="600" fill="#fff">Contacto</text><rect x="170" y="210" width="120" height="40" rx="8" fill="#7C3AED"/><text x="230" y="235" text-anchor="middle" font-family='DM Sans, Inter, Arial, sans-serif' font-size="14" font-weight="600" fill="#fff">Blog</text>
  <text x="40" y="300" font-family='DM Sans, Inter, Arial, sans-serif' font-size="12" fill="#64748B">"Enviar" no dice qué pasa. Todos compiten por la atención.</text>
</g>

  <g transform="translate(560,0)">
    <rect x="0" y="0" width="520" height="340" rx="14" fill="#fff" stroke="#E2E8F0" stroke-width="2"/>
    <rect x="16" y="14" width="68" height="24" rx="12" fill="#16A34A"/>
    <text x="50" y="31" text-anchor="middle" font-family='DM Sans, Inter, Arial, sans-serif' font-size="12" font-weight="700" fill="#fff">✓ BIEN</text>
    <text x="504" y="31" text-anchor="end" font-family='DM Sans, Inter, Arial, sans-serif' font-size="12" fill="#64748B">Un primario + un secundario</text>
  </g>
<g transform="translate(560,0)">
  <text x="40" y="100" font-family='Space Grotesk, Arial, sans-serif' font-size="24" font-weight="700" fill="#1E293B">Organiza tu inventario</text>
  <text x="40" y="128" font-family='DM Sans, Inter, Arial, sans-serif' font-size="14" fill="#64748B">Para tiendas pequeñas que venden en línea y en local.</text>
  <rect x="40" y="160" width="200" height="48" rx="8" fill="#F97316"/><text x="140" y="189" text-anchor="middle" font-family='DM Sans, Inter, Arial, sans-serif' font-size="14" font-weight="600" fill="#fff">Crear mi cuenta gratis</text>
  <rect x="256" y="160" width="150" height="48" rx="8" fill="none" stroke="#E2E8F0" stroke-width="2"/><text x="331" y="189" text-anchor="middle" font-family='DM Sans, Inter, Arial, sans-serif' font-size="14" font-weight="600" fill="#1E293B">Ver demo (2 min)</text>
  <text x="40" y="236" font-family='DM Sans, Inter, Arial, sans-serif' font-size="12" fill="#64748B">✓ Sin tarjeta · ✓ Listo en 5 minutos</text>
  <text x="40" y="300" font-family='DM Sans, Inter, Arial, sans-serif' font-size="12" fill="#64748B">Verbo + beneficio, color de acción único, microcopy que quita miedo.</text>
</g>
</svg>